<?xml version="1.0" encoding="UTF-8"?>
<svg width="309px" height="309px" viewBox="0 0 309 309" version="1.1" xmlns="http://www.w3.org/2000/svg" xmlns:xlink="http://www.w3.org/1999/xlink">
    <!-- Generator: Sketch 50 (54983) - http://www.bohemiancoding.com/sketch -->
    <title>avatarmale</title>
    <desc>Created with Sketch.</desc>
    <defs></defs>
    <g id="Page-1" stroke="none" stroke-width="1" fill="none" fill-rule="evenodd">
        <g id="Set-2" transform="translate(-40.000000, -39.000000)" fill-rule="nonzero">
            <g id="avatarmale" transform="translate(40.000000, 39.000000)">
                <g id="XMLID_638_" transform="translate(2.000000, 2.000000)" fill="#E8F5F6">
                    <g id="XMLID_639_">
                        <path d="M152.5,304.425 C131.9,304.425 112.33,300.305 93.275,292.58 C75.25,284.855 58.77,274.04 44.865,260.135 C30.96,246.23 20.145,229.75 12.42,211.725 C4.695,192.67 0.575,173.1 0.575,152.5 C0.575,131.9 4.695,112.33 12.42,93.275 C20.145,75.25 30.96,58.77 44.865,44.865 C58.77,30.96 75.25,20.145 93.275,12.42 C112.33,4.695 131.9,0.575 152.5,0.575 C173.1,0.575 192.67,4.695 211.725,12.42 C229.75,20.145 246.23,30.96 260.135,44.865 C274.04,58.77 284.855,75.25 292.58,93.275 C300.305,111.815 304.425,131.9 304.425,152.5 C304.425,173.1 300.305,192.67 292.58,211.725 C284.855,229.75 274.04,246.23 260.135,260.135 C246.23,274.04 229.75,284.855 211.725,292.58 C192.67,300.305 173.1,304.425 152.5,304.425 Z" id="Shape"></path>
                    </g>
                </g>
                <g id="XMLID_587_" transform="translate(89.000000, 73.000000)" fill="#FEE1D1">
                    <path d="M18.0481481,19.0707317 L47.9074074,0.0292682927 L110.2,9.80731707 L120.496296,39.1414634 L118.437037,61.2707317 C118.437037,61.2707317 132.337037,64.3585366 132.851852,68.4756098 C133.366667,72.5926829 134.396296,85.4585366 131.307407,88.5463415 C128.218519,92.1487805 116.892593,102.956098 114.318519,102.441463 C111.744444,101.412195 112.259259,118.909756 109.685185,122.512195 C107.111111,126.629268 99.9037037,141.039024 99.9037037,141.039024 L104.022222,165.741463 L86.5185185,198.678049 L51.5111111,204.853659 L33.4925926,181.180488 L36.5814815,144.641463 C36.5814815,144.641463 29.3740741,135.892683 27.3148148,131.260976 C25.2555556,126.629268 17.0185185,105.529268 17.0185185,101.412195 C17.0185185,97.295122 2.6037037,97.8097561 1.05925926,89.5756098 C-0.485185185,81.3414634 -0.485185185,66.4170732 10.3259259,60.7560976 C20.6222222,55.095122 8.26666667,37.0829268 8.26666667,37.0829268 L18.0481481,19.0707317 Z" id="Shape"></path>
                </g>
                <g id="XMLID_637_" transform="translate(91.000000, 43.000000)" fill="#7C6E7C">
                    <path d="M15.0384615,95.4842105 C15.0384615,95.4842105 12.9769231,89.8105263 16.5846154,67.1157895 C20.1923077,43.9052632 34.6230769,42.8736842 34.6230769,42.8736842 C34.6230769,42.8736842 36.1692308,41.8421053 35.6538462,42.8736842 C35.1384615,43.9052632 35.6538462,47 35.6538462,47 C34.6230769,64.5368421 48.5384615,73.3052632 48.5384615,72.2736842 C48.0230769,71.2421053 51.6307692,55.2526316 67.6076923,56.8 C82.0384615,58.3473684 99.0461538,47.5157895 99.0461538,47.5157895 C112.446154,56.8 114.507692,87.2315789 114.507692,87.2315789 L115.023077,94.4526316 C115.023077,94.4526316 119.661538,93.4210526 124.3,77.4315789 C128.938462,61.4421053 125.330769,48.5473684 123.784615,39.2631579 C122.238462,30.4947368 110.9,22.2421053 108.838462,21.7263158 C106.776923,21.2105263 98.0153846,18.1157895 95.4384615,14.5052632 C92.8615385,10.8947368 81.0076923,2.64210526 65.0307692,1.09473684 C49.0538462,0.0631578947 30.5,6.76842105 16.5846154,18.1157895 C2.66923077,29.4631579 0.0923076923,47.5157895 0.0923076923,59.3789474 C-0.423076923,71.2421053 6.27692308,90.8421053 6.27692308,90.8421053 L15.0384615,95.4842105 Z" id="XMLID_1_"></path>
                </g>
                <g id="XMLID_636_" transform="translate(52.000000, 234.000000)" fill="#E94C89">
                    <path d="M151.331707,14.4266667 L140.52439,2.10666667 L112.734146,28.8 L97.295122,29.8266667 C97.295122,29.8266667 71.0487805,1.08 71.0487805,0.566666667 C71.0487805,0.0533333333 60.2414634,13.9133333 60.2414634,13.9133333 C60.2414634,13.9133333 1.05853659,31.88 0.543902439,31.3666667 C0.0292682927,30.8533333 14.4390244,44.2 14.4390244,44.2 L34.5097561,54.98 L54.5804878,64.22 L79.2829268,69.3533333 L105.529268,71.4066667 L134.863415,68.3266667 L164.197561,58.5733333 L191.473171,43.1733333 L206.912195,29.8266667 L151.331707,14.4266667 Z" id="Shape"></path>
                </g>
                <g id="XMLID_616_" fill="#6C335A">
                    <path d="M296.64,94.245 C288.915,75.705 277.585,59.225 263.68,45.32 C249.26,30.9 232.78,20.085 214.755,12.36 C195.7,4.12 175.1,0 154.5,0 C133.9,0 113.3,4.12 94.245,12.36 C75.705,20.085 59.225,30.9 45.32,45.32 C30.9,59.74 20.085,76.22 12.36,94.245 C4.12,113.3 0,133.9 0,154.5 C0,175.1 4.12,195.7 12.36,214.755 C20.085,233.295 31.415,249.775 45.32,263.68 C46.35,264.71 47.38,265.74 48.41,266.77 C48.41,266.77 48.41,267.285 48.41,267.285 C48.925,268.315 49.955,269.345 50.985,269.345 C50.985,269.345 50.985,269.345 50.985,269.345 C63.86,280.675 78.28,289.945 94.245,296.64 C113.3,304.88 133.9,309 154.5,309 C158.105,309 162.225,309 165.83,308.485 C166.345,308.485 166.345,309 166.86,309 C166.86,309 167.375,309 167.375,309 C167.89,309 167.89,308.485 168.405,308.485 C184.37,306.94 199.82,303.335 214.24,297.155 C232.78,289.43 249.26,278.1 263.165,264.195 C277.585,249.775 288.4,233.295 296.125,215.27 C304.88,195.7 309,175.1 309,154.5 C309,133.9 304.88,113.3 296.64,94.245 Z M57.165,267.8 L112.27,251.32 L127.205,301.275 C116.905,299.215 106.605,296.125 96.82,292.005 C81.885,285.825 69.01,277.585 57.165,267.8 Z M158.105,128.75 L151.925,128.75 C149.35,128.75 146.775,129.78 145.23,131.325 C145.23,131.325 144.715,130.81 144.715,130.81 C141.11,127.205 135.96,124.63 130.295,124.63 L122.57,124.63 C117.42,124.63 112.785,126.69 109.695,130.295 C108.665,131.325 108.15,132.355 107.12,133.385 C105.575,115.875 108.665,102.485 115.36,94.245 C118.965,90.125 123.085,88.065 125.66,87.035 C121.025,109.18 137.505,117.935 138.02,117.935 L143.685,120.51 L141.625,114.845 C141.11,113.815 141.11,111.24 143.17,108.15 C145.23,105.06 149.865,101.455 160.68,100.94 C176.13,100.425 185.4,95.275 189.005,92.7 C191.58,96.305 196.73,103 199.305,109.695 C201.88,115.36 201.88,126.175 201.88,132.87 C201.365,131.84 200.85,130.81 199.82,130.295 C196.73,126.69 192.095,124.63 186.945,124.63 L179.22,124.63 C173.555,124.63 168.405,126.69 164.8,130.295 C164.8,130.295 164.285,130.81 164.285,131.325 C163.255,129.78 161.195,128.75 158.105,128.75 Z M143.685,137.505 C143.685,137.505 143.685,138.02 143.685,138.02 C144.2,139.05 144.2,140.595 144.2,142.14 L143.685,146.26 C142.655,155.015 135.96,164.285 129.265,164.285 L125.66,164.285 C118.45,164.285 111.755,156.045 110.725,148.32 L110.21,144.2 C109.695,140.595 111.24,136.475 113.815,133.9 C116.39,131.325 119.48,129.78 123.085,129.78 L130.81,129.78 C134.93,129.78 139.05,131.325 141.625,133.9 C142.14,135.445 143.17,136.475 143.685,137.505 Z M169.435,134.415 C172.01,131.84 175.615,130.295 180.25,130.295 L187.975,130.295 C191.58,130.295 194.67,131.84 197.245,134.415 C199.82,136.99 200.85,140.595 200.85,144.2 L200.335,149.35 C199.82,157.075 192.61,165.315 185.4,165.315 L181.795,165.315 C175.1,165.315 167.89,155.53 167.375,147.29 L167.375,143.685 C166.345,140.08 167.375,136.475 169.435,134.415 Z M208.06,134.415 C208.06,127.72 208.06,114.845 204.97,107.635 C200.335,97.85 192.61,88.065 192.095,87.55 L190.55,85.49 L188.49,87.55 C188.49,87.55 180.765,95.275 161.195,96.305 C148.32,96.82 142.655,101.455 139.565,105.575 C138.535,107.12 137.505,109.18 136.99,110.725 C132.87,107.12 127.72,98.88 132.355,84.46 L133.385,80.855 L129.78,80.855 C129.265,80.855 119.995,81.37 112.27,90.64 C104.03,99.91 100.94,114.845 102.485,134.415 L100.94,133.9 C98.365,126.175 89.61,97.335 98.365,80.34 C108.665,60.255 123.085,54.59 135.96,51.5 C149.35,48.41 177.16,47.38 183.34,59.74 C183.855,61.285 185.915,63.86 188.49,64.375 C188.49,64.375 210.635,68.495 213.21,88.58 C215.27,106.09 209.605,128.235 208.06,134.415 Z M100.425,140.08 L105.06,143.17 C105.06,143.685 105.06,144.2 105.06,144.715 L105.575,149.865 C106.605,160.165 115.875,170.465 125.66,170.465 L129.265,170.465 C138.535,170.465 147.805,159.135 148.835,147.805 L149.35,144.2 C149.35,142.14 149.35,140.08 148.835,138.02 C148.835,135.96 150.38,134.415 152.44,134.415 L158.62,134.415 C160.68,134.415 162.225,135.96 162.225,138.02 C162.225,138.02 162.225,138.02 162.225,138.02 C161.71,139.565 161.71,141.625 161.71,143.17 L162.225,147.29 C163.255,158.62 172.525,169.95 181.795,169.95 L185.4,169.95 C195.185,169.95 204.455,159.65 205.485,149.35 L206,145.23 C206,144.715 206,143.685 206,143.685 L208.575,141.625 C211.665,140.595 215.27,139.565 217.845,141.11 C220.42,143.17 220.935,147.805 220.42,149.865 C218.875,172.525 203.425,173.04 202.91,173.04 L200.85,173.04 L200.335,175.1 C198.275,191.065 193.64,202.395 188.49,209.605 C187.975,210.12 187.46,210.635 187.46,211.665 C175.615,227.115 161.195,227.115 160.165,227.115 L151.925,227.115 C115.875,227.115 109.18,176.645 109.18,176.13 L109.18,174.07 L107.12,173.555 C99.91,172.525 92.185,168.92 90.125,151.41 C89.61,146.26 90.125,143.17 92.185,141.11 C94.245,138.535 98.365,139.565 100.425,140.08 Z M187.975,234.84 C187.975,235.355 188.49,235.87 188.49,235.87 L163.255,262.65 L186.945,300.76 C181.28,302.305 175.1,302.82 168.92,303.85 L165.83,291.49 L171.495,279.13 L162.74,265.225 L151.925,265.74 L143.17,279.645 L150.38,292.005 L146.775,303.85 C140.08,303.335 133.9,302.82 127.205,301.79 L151.41,263.68 L126.175,235.87 C126.175,235.87 126.175,235.355 126.175,234.84 L126.175,222.995 C132.355,228.145 140.595,231.75 150.38,231.75 L159.65,231.75 C159.65,231.75 159.65,231.75 160.165,231.75 C162.74,231.75 175.615,230.72 187.46,218.36 L187.975,234.84 Z M192.095,239.475 L199.82,248.745 L185.4,289.43 L168.92,263.165 L192.095,239.475 Z M123.085,238.96 L145.23,263.68 L128.75,289.945 L116.39,247.2 L123.085,238.96 Z M152.44,303.85 L156.56,290.975 L149.865,279.13 L155.53,270.375 L160.68,269.86 L166.345,278.615 L160.68,290.46 L163.77,303.335 C160.68,303.85 157.59,303.85 154.5,303.85 C153.985,303.85 152.955,303.85 152.44,303.85 Z M212.695,292.005 C204.455,295.61 196.215,298.185 187.46,300.245 L204.455,251.835 L254.41,265.74 C242.05,276.555 228.145,285.825 212.695,292.005 Z M292.005,212.695 C284.28,230.72 273.465,246.685 260.075,260.075 C259.56,260.59 259.045,261.105 258.53,261.62 L204.97,246.685 L192.61,232.265 L191.58,212.695 C197.245,204.97 201.88,193.64 204.455,177.675 C210.12,176.645 223.51,172.01 225.055,149.865 C225.055,149.35 225.57,140.595 220.42,136.475 C218.875,135.445 216.815,134.415 214.24,134.415 C214.24,133.9 214.24,133.9 213.725,133.385 C213.725,133.385 213.725,133.385 213.725,133.385 C215.785,124.63 219.905,104.545 217.845,87.55 C214.755,64.375 189.52,59.225 189.52,59.225 C189.005,59.225 188.49,58.195 187.975,57.165 C180.25,41.715 148.32,43.26 134.93,46.35 C121.025,49.44 105.06,56.135 93.73,77.765 C84.46,95.79 91.67,123.085 95.275,133.385 C95.275,133.385 95.275,133.385 95.275,133.385 C95.275,133.385 95.275,133.9 94.76,133.9 C92.7,133.9 90.125,134.93 88.065,136.475 C84.46,139.565 83.43,144.2 83.945,151.41 C86.52,170.98 95.79,176.13 103.515,177.675 C104.545,183.855 109.18,204.455 122.055,217.845 L122.055,232.265 L111.24,246.17 L53.045,263.68 C51.5,262.65 49.955,261.105 48.925,260.075 C35.02,246.17 24.205,230.205 16.995,212.695 C9.27,194.155 5.15,174.585 5.15,154.5 C5.15,134.415 9.27,114.845 16.995,96.305 C24.72,78.28 35.535,62.315 48.925,48.925 C62.83,35.02 78.795,24.205 96.305,16.995 C114.845,9.27 134.415,5.15 154.5,5.15 C174.585,5.15 194.155,9.27 212.695,16.995 C230.72,24.72 246.685,35.535 260.075,48.925 C273.98,62.83 284.795,78.795 292.005,96.305 C299.73,114.845 303.85,134.415 303.85,154.5 C303.85,174.585 299.73,194.155 292.005,212.695 Z" id="Shape"></path>
                </g>
                <g id="XMLID_658_" transform="translate(141.000000, 194.000000)" fill="#6C335A">
                    <path d="M14.4571429,8.5 C6.74285714,8.5 2.11428571,6 1.6,5.5 C0.571428571,5 0.0571428571,3.5 0.571428571,2 C1.08571429,1 2.62857143,0.5 4.17142857,1 C4.68571429,1 12.9142857,6 26.2857143,1 C27.8285714,0.5 28.8571429,1 29.8857143,2.5 C30.4,4 29.8857143,5 28.3428571,6 C23.2,8 18.5714286,8.5 14.4571429,8.5 Z" id="XMLID_3_"></path>
                </g>
                <g id="XMLID_643_" transform="translate(147.000000, 175.000000)" fill="#6C335A">
                    <path d="M13.275,5 C13.275,5 13.275,5 13.275,5 L3.3,5 C1.725,5 0.675,4 0.675,2.5 C0.675,1 2.25,0 3.3,0 L13.275,0.5 C14.85,0.5 15.9,1.5 15.9,2.5 C15.9,4.5 14.325,5 13.275,5 Z" id="XMLID_2_"></path>
                </g>
            </g>
        </g>
    </g>
</svg>